<?xml version="1.0" encoding="UTF-8"?>
<svg id="Object" xmlns="http://www.w3.org/2000/svg" viewBox="0 0 1664.33 1237.66">
  <defs>
    <style>
      .cls-1 {
        fill: #fff;
      }

      .cls-2 {
        fill: #da7f7e;
      }

      .cls-3 {
        fill: #f0ae9d;
      }

      .cls-4 {
        fill: #2f354e;
      }

      .cls-5 {
        fill: #efe8df;
      }

      .cls-6 {
        fill: #ed9651;
      }

      .cls-7 {
        fill: #ce6b45;
      }

      .cls-8 {
        fill: #7779ba;
      }

      .cls-9 {
        fill: #fef7ee;
      }

      .cls-10 {
        fill: #f1f0f2;
      }

      .cls-11 {
        fill: #cbc5ce;
      }

      .cls-12 {
        fill: #8a838e;
      }

      .cls-13 {
        fill: #a69faa;
      }
    </style>
  </defs>
  <g id="Object-2" data-name="Object">
    <path class="cls-10" d="m1520.54,1230.7H191.55c-37.35-72.22-49.59-173.3-1.74-239.03,62.02-85.19,190.39-85.09,274.79-148.19,73.36-54.85,103.77-150.17,116.16-240.93,12.4-90.75,11.41-184.41,40.96-271.1,29.56-86.7,100.36-168.25,191.77-174.08,61.75-3.94,122.82,28.78,160.1,78.16,37.29,49.38,52.18,113.42,48.57,175.19-3.14,53.82-18.08,113.42,12.72,157.67,22.79,32.74,64.61,46.33,104.21,51.2,39.6,4.87,80.38,3.25,118.49,15.03,80.12,24.77,134.63,113.8,120.26,196.42-6.02,34.59-20.54,75.87,4.45,100.52,10.22,10.08,24.72,14.14,38.09,19.39,55.15,21.65,98.79,70.6,114,127.86,15.21,57.26,23.27,105.73-13.86,151.89Z"/>
    <path class="cls-11" d="m1414.02,1152.41s42.47,31.11,48.27,60.1c4-9.13,9.48-21.35,16.04-35.33-4.6-.63-28.07-6.51-47.68-61.16,0,0,42.33,31.01,48.25,59.96,2.6-5.52,5.36-11.31,8.27-17.27,2.38-4.89,4.93-10.03,7.61-15.37-6.02-1.16-28.22-8.95-46.91-61.03,0,0,41.27,30.24,48,58.87,4.82-9.52,10.06-19.59,15.63-29.81-4.72-1.73-23.13-11.47-31.41-60.1,0,0,30.93,32.37,32.47,58.15,4.71-8.61,9.64-17.31,14.71-25.85-4.21-1.85-22.27-12.6-26.69-62.52,0,0,28.43,35,27.69,60.84,4.83-8.09,9.79-16.03,14.8-23.61-3.41-1.31-20.67-10.19-25.83-56.53,0,0,27.13,31.91,26.47,55.55,4.18-6.28,8.4-12.3,12.63-17.95,6.43-22.48,38.07-45.66,38.07-45.66-17.5,48.75-38.83,49.06-38.85,49.06-3.44,4.69-6.88,9.63-10.29,14.73,20.88-10.96,60.98-1.61,60.98-1.61-42.83,16.35-58.81,5.71-61.93,3.04-5.1,7.7-10.14,15.77-15.04,24,22.84-12.19,67.09-1.87,67.09-1.87-47.05,17.96-64.57,6.23-67.95,3.32-5.21,8.78-10.27,17.73-15.09,26.57,24.49-8.48,66.68,8.93,66.68,8.93-48.54,9.97-64.22-3.82-67.44-7.52-5.53,10.18-10.75,20.2-15.54,29.68,29.11-5,73.36,23.05,73.36,23.05-55.8,1.61-70.93-16.54-74.03-21.54-.01,0-.05,0-.09,0-2.76,5.48-5.37,10.76-7.82,15.77-2.88,5.91-5.62,11.64-8.19,17.11,29.11-5.2,73.61,23.01,73.61,23.01-56.78,1.64-71.45-17.18-74.18-21.79-6.42,13.68-11.81,25.68-15.79,34.75,29.11-4.98,73.34,23.06,73.34,23.06-55.71,1.61-70.88-16.48-74.01-21.52-4.39,10.04-6.9,16.1-6.96,16.24-.11.27-.37.43-.65.43-.09,0-.18-.02-.27-.05-.36-.15-.53-.56-.38-.92.06-.14,2.53-6.12,6.87-16.05-4.3-.55-28.01-6.04-47.8-61.18Z"/>
    <path class="cls-11" d="m606.63,1016.98s106.56,50.51,131.57,111.82c4.95-21.76,11.83-50.97,20.37-84.49-10.39.55-64.49-2.48-130.72-114.4,0,0,106.22,50.34,131.46,111.52,3.39-13.24,7.02-27.13,10.9-41.49,3.17-11.75,6.6-24.15,10.25-37.02-13.74-.01-65.85-7.77-128.97-114.45,0,0,103.56,49.09,130.46,109.22,6.57-22.97,13.87-47.35,21.79-72.18-11.11-1.8-55.72-15.46-94.48-118.94,0,0,81.71,58.15,95.99,114.21,6.73-20.94,13.89-42.15,21.44-63.08-10.05-2.28-54.31-18.31-85.12-126.26,0,0,77.31,64.98,86.61,122.15,7.21-19.84,14.76-39.39,22.6-58.18-8.06-1.45-49.78-13.67-80.68-113.44,0,0,73.16,58.74,81.69,111.03,6.54-15.58,13.29-30.61,20.2-44.82,4.66-52.16,64.46-116.51,64.46-116.51-17.91,114.64-64.7,124.32-64.74,124.32-5.59,11.78-11.07,24.08-16.42,36.76,41.3-32.93,133.46-29.29,133.46-29.29-87.31,54.05-126.97,37.4-134.95,32.84-7.97,19.08-15.64,38.97-22.96,59.14,45.11-36.46,146.79-32.44,146.79-32.44-95.92,59.38-139.41,40.96-148.07,35.99-7.75,21.52-15.1,43.33-21.98,64.83,50.29-28.99,150.45-8.51,150.45-8.51-102.58,42.42-142.89,18.71-151.54,11.93-7.87,24.72-15.13,48.98-21.66,71.85,61.93-23.28,171.11,19.73,171.11,19.73-122.08,27.12-163.02-6.43-171.94-16.12-.03,0-.1.02-.21.03-3.76,13.22-7.28,25.95-10.53,38-3.84,14.22-7.44,27.98-10.8,41.11,61.83-23.73,171.63,19.53,171.63,19.53-124.21,27.59-164.42-7.62-172.38-16.61-8.36,32.8-15.13,61.48-20.06,83.11,61.94-23.24,171.06,19.75,171.06,19.75-121.88,27.07-162.89-6.32-171.9-16.08-5.42,23.95-8.38,38.33-8.44,38.65-.13.64-.64,1.11-1.24,1.23-.2.04-.4.04-.61,0-.85-.17-1.4-1-1.23-1.85.07-.32,2.98-14.53,8.34-38.21-9.68.61-64.16-1.45-130.99-114.39Z"/>
    <g>
      <path class="cls-11" d="m1294.08,1219.75l63.72-.7s12.67-129.71,6.19-187.6l-27.79,9.63,24.36-33.41c-5.14-28.95-14.36-60.91-30.17-93.45l-17.09,10.24,8.44-26.89c-15.94-28.73-37.29-57.59-65.78-84.93,0,0-7.02,14.98-13.5,41.82l13.97,33.98-18.93-9.85c-11.13,64.9-9.75,214.77,56.58,341.16Z"/>
      <path class="cls-13" d="m1301.24,1219.75l82.57-1.02s24.05-63.84,40.35-143.32l-29.3-5.96,35.29-27.2c6.41-41,10.21-88.63,8.17-141.38l-19.68,1.93,18.12-29.3c-3.62-47.89-12.18-99.56-27.9-153.98,0,0-12.23,14.79-28.52,45.32l-.21,53.41-13.64-25.37c-35.22,76.88-77.7,218.68-65.25,426.87Z"/>
      <path class="cls-11" d="m1379.15,1218.77l60.85-.28s20.77-43.29,38.24-88.34l-20.79-5.12,27.49-13.73c7.56-23.35,13.71-50.69,15.98-81.32h-14.39s15.21-15.92,15.21-15.92c.79-27.91-1.73-58.29-9.24-90.66,0,0-9.91,7.86-23.88,24.6l-3.96,30.88-8.07-15.45c-30.98,42.47-71.63,134.2-77.43,255.34Z"/>
      <path class="cls-13" d="m1410.72,1217.32c.27,0,.51-.2.55-.48,13.5-97.44,55.86-208.72,56.28-209.69.12-.28,0-.61-.29-.73-.28-.12-.61,0-.73.29-.43.97-42.85,112.39-56.37,209.99-.04.31.17.59.48.63.03,0,.05,0,.08,0Z"/>
      <path class="cls-11" d="m1345.75,1201.65c.3,0,.55-.24.56-.55.04-1.9,3.91-191.35,33.38-296.64.08-.3-.09-.6-.39-.69-.29-.08-.61.09-.69.39-29.51,105.43-33.39,295.02-33.42,296.92,0,.31.24.56.55.57h.01Z"/>
    </g>
    <g>
      <rect class="cls-6" x="1076.45" y="24.65" width="587.88" height="833.26"/>
      <g>
        <path class="cls-7" d="m1432.27,213.87h-29.11l-31.67-50.94-10.83,7.77v43.17h-25.64v-120.91h25.64v55.33l10.09-14.22,32.75-41.1h28.45l-42.18,53.51,42.51,67.4Z"/>
        <path class="cls-7" d="m1465.77,240.51v61.23c0,6.99-1.56,13.12-4.69,18.38s-7.65,9.3-13.56,12.1c-5.91,2.81-12.9,4.21-20.97,4.21-12.17,0-21.62-3.12-28.35-9.35-6.73-6.24-10.1-14.77-10.1-25.6v-60.97h20v57.93c0,7.29,1.47,12.64,4.4,16.05,2.93,3.41,7.79,5.11,14.56,5.11s11.32-1.71,14.27-5.15,4.43-8.81,4.43-16.15v-57.8h20Z"/>
        <path class="cls-7" d="m1378.2,430.95h-14.94v-58.04h-19.14v-12.44h53.22v12.44h-19.14v58.04Z"/>
        <path class="cls-7" d="m1235.28,498.08v-44.98h9.54v37.11h18.25v7.88h-27.79Z"/>
        <path class="cls-7" d="m1254.55,528.68c0,3.94-1.23,6.96-3.7,9.05s-5.97,3.13-10.52,3.13h-3.33v13.04h-7.77v-36.65h11.71c4.45,0,7.83.96,10.14,2.87,2.31,1.91,3.47,4.77,3.47,8.56Zm-17.55,5.82h2.56c2.39,0,4.18-.47,5.36-1.42,1.19-.94,1.78-2.32,1.78-4.12s-.5-3.17-1.49-4.04-2.55-1.3-4.67-1.3h-3.54v10.88Z"/>
        <path class="cls-7" d="m1305.09,539.84v14.06h-7.77v-36.65h10.68c4.98,0,8.67.91,11.05,2.72,2.39,1.81,3.58,4.57,3.58,8.26,0,2.16-.59,4.07-1.78,5.75s-2.87,3-5.04,3.95c5.51,8.24,9.11,13.56,10.78,15.97h-8.62l-8.75-14.06h-4.14Zm0-6.32h2.51c2.46,0,4.27-.41,5.44-1.23,1.17-.82,1.75-2.11,1.75-3.86s-.6-2.97-1.79-3.71c-1.2-.74-3.05-1.1-5.55-1.1h-2.36v9.9Z"/>
        <path class="cls-7" d="m1372.29,553.9h-7.77v-30.18h-9.95v-6.47h27.67v6.47h-9.95v30.18Z"/>
        <path class="cls-7" d="m1431.17,553.9l-8.82-28.75h-.23c.32,5.85.48,9.75.48,11.71v17.05h-6.94v-36.65h10.58l8.67,28.03h.15l9.2-28.03h10.58v36.65h-7.24v-17.35c0-.82.01-1.76.04-2.83.02-1.07.14-3.91.34-8.52h-.23l-9.45,28.7h-7.12Z"/>
        <path class="cls-7" d="m1511.61,553.9h-9.88l-15.94-27.72h-.23c.32,4.9.48,8.39.48,10.48v17.25h-6.94v-36.65h9.8l15.92,27.45h.18c-.25-4.76-.38-8.13-.38-10.1v-17.35h6.99v36.65Z"/>
        <path class="cls-7" d="m1343.58,498.08h-10.83l-11.79-18.95-4.03,2.89v16.06h-9.54v-44.98h9.54v20.58l3.75-5.29,12.18-15.29h10.58l-15.69,19.91,15.82,25.08Z"/>
        <path class="cls-7" d="m1249.23,606h-7.22l-7.85-12.63-2.69,1.93v10.7h-6.36v-29.98h6.36v13.72l2.5-3.53,8.12-10.19h7.05l-10.46,13.27,10.54,16.71Z"/>
        <path class="cls-7" d="m1304.25,590.97c0,4.96-1.23,8.78-3.69,11.44-2.46,2.67-5.99,4-10.58,4s-8.12-1.33-10.58-4c-2.46-2.67-3.69-6.49-3.69-11.48s1.23-8.8,3.7-11.43c2.47-2.63,6-3.95,10.61-3.95s8.13,1.33,10.57,3.98c2.44,2.65,3.66,6.47,3.66,11.44Zm-21.88,0c0,3.35.64,5.87,1.91,7.57,1.27,1.7,3.17,2.54,5.7,2.54,5.07,0,7.61-3.37,7.61-10.11s-2.52-10.13-7.57-10.13c-2.53,0-4.44.85-5.72,2.55-1.29,1.7-1.93,4.23-1.93,7.58Z"/>
        <path class="cls-7" d="m1338.05,594.5v11.5h-6.36v-29.98h8.74c4.07,0,7.09.74,9.04,2.22,1.96,1.48,2.93,3.74,2.93,6.76,0,1.76-.49,3.33-1.46,4.71-.97,1.37-2.34,2.45-4.12,3.23,4.51,6.74,7.45,11.09,8.82,13.06h-7.05l-7.16-11.5h-3.38Zm0-5.17h2.05c2.01,0,3.49-.33,4.45-1,.96-.67,1.44-1.72,1.44-3.16s-.49-2.43-1.47-3.04-2.49-.9-4.54-.9h-1.93v8.1Z"/>
        <path class="cls-7" d="m1225.92,640.41v8.12h-4.49v-21.15h6.16c2.87,0,5,.52,6.38,1.57,1.38,1.05,2.07,2.64,2.07,4.77,0,1.24-.34,2.35-1.03,3.32-.69.97-1.65,1.73-2.91,2.28,3.18,4.76,5.26,7.83,6.22,9.22h-4.98l-5.05-8.12h-2.39Zm0-3.65h1.45c1.42,0,2.46-.24,3.14-.71.67-.47,1.01-1.21,1.01-2.23s-.34-1.72-1.03-2.14c-.69-.42-1.76-.64-3.21-.64h-1.36v5.71Z"/>
        <path class="cls-7" d="m1266.11,627.37h6.58c3,0,5.18.43,6.53,1.28s2.03,2.21,2.03,4.07c0,1.26-.3,2.3-.89,3.11-.59.81-1.38,1.3-2.37,1.46v.14c1.34.3,2.31.86,2.9,1.68.59.82.89,1.91.89,3.27,0,1.93-.7,3.43-2.09,4.51-1.39,1.08-3.29,1.62-5.68,1.62h-7.92v-21.15Zm4.49,8.38h2.6c1.22,0,2.1-.19,2.64-.56.54-.38.82-1,.82-1.87,0-.81-.3-1.39-.89-1.74-.59-.35-1.53-.53-2.81-.53h-2.36v4.7Zm0,3.56v5.51h2.92c1.23,0,2.15-.24,2.73-.71.59-.47.88-1.2.88-2.17,0-1.76-1.25-2.63-3.76-2.63h-2.78Z"/>
        <path class="cls-7" d="m1330.44,648.52h-5.11l-2.86-11.11c-.11-.4-.29-1.21-.54-2.45s-.4-2.07-.44-2.5c-.06.52-.2,1.36-.43,2.51-.23,1.15-.41,1.97-.54,2.47l-2.85,11.08h-5.09l-5.4-21.15h4.41l2.71,11.55c.47,2.13.81,3.98,1.03,5.54.06-.55.19-1.4.4-2.55.21-1.15.4-2.05.59-2.68l3.08-11.85h4.24l3.08,11.85c.13.53.3,1.34.51,2.43.2,1.09.36,2.03.46,2.81.1-.75.25-1.69.46-2.81.21-1.12.41-2.03.58-2.73l2.69-11.55h4.41l-5.38,21.15Z"/>
        <path class="cls-7" d="m1365.03,654.75c-1.01,0-1.9-.11-2.65-.32v-3.73c.77.19,1.48.29,2.11.29.98,0,1.69-.31,2.11-.92.42-.61.64-1.57.64-2.87v-19.82h4.49v19.79c0,2.47-.56,4.35-1.69,5.64-1.13,1.29-2.8,1.94-5.01,1.94Z"/>
        <path class="cls-7" d="m1426.32,648.52h-5.09l-5.54-8.91-1.9,1.36v7.55h-4.49v-21.15h4.49v9.68l1.77-2.49,5.73-7.19h4.98l-7.38,9.36,7.44,11.79Z"/>
        <path class="cls-7" d="m1476.6,648.52h-5.11l-2.86-11.11c-.11-.4-.29-1.21-.54-2.45s-.4-2.07-.44-2.5c-.06.52-.2,1.36-.43,2.51-.23,1.15-.41,1.97-.54,2.47l-2.85,11.08h-5.09l-5.4-21.15h4.41l2.71,11.55c.47,2.13.81,3.98,1.03,5.54.06-.55.19-1.4.4-2.55.21-1.15.4-2.05.59-2.68l3.08-11.85h4.24l3.08,11.85c.13.53.3,1.34.51,2.43.2,1.09.36,2.03.46,2.81.1-.75.25-1.69.46-2.81.21-1.12.41-2.03.58-2.73l2.69-11.55h4.41l-5.38,21.15Z"/>
        <path class="cls-7" d="m1520.41,642.65c0,1.91-.69,3.41-2.06,4.51-1.37,1.1-3.29,1.65-5.74,1.65-2.26,0-4.25-.42-5.99-1.27v-4.17c1.43.64,2.64,1.09,3.62,1.35.99.26,1.89.39,2.71.39.98,0,1.74-.19,2.26-.56.53-.38.79-.94.79-1.68,0-.42-.12-.78-.35-1.11-.23-.32-.57-.63-1.02-.93-.45-.3-1.36-.78-2.74-1.43-1.29-.61-2.26-1.19-2.91-1.75-.65-.56-1.16-1.21-1.55-1.95s-.58-1.61-.58-2.6c0-1.87.63-3.34,1.9-4.41s3.02-1.61,5.26-1.61c1.1,0,2.15.13,3.15.39,1,.26,2.04.63,3.13,1.1l-1.45,3.49c-1.13-.46-2.06-.79-2.8-.97-.74-.18-1.46-.28-2.18-.28-.85,0-1.5.2-1.95.59s-.68.91-.68,1.55c0,.4.09.74.27,1.03.18.29.48.58.88.85.4.28,1.35.77,2.84,1.48,1.98.95,3.33,1.89,4.07,2.84.73.95,1.1,2.12,1.1,3.5Z"/>
        <path class="cls-7" d="m1227.57,687.85h-3.64v-14.15h-4.67v-3.03h12.97v3.03h-4.67v14.15Z"/>
        <path class="cls-7" d="m1274.47,687.85l-1.25-4.09h-6.26l-1.25,4.09h-3.92l6.06-17.25h4.45l6.09,17.25h-3.92Zm-2.12-7.14c-1.15-3.71-1.8-5.8-1.95-6.29-.14-.49-.25-.87-.31-1.15-.26,1-1,3.48-2.22,7.44h4.48Z"/>
        <path class="cls-7" d="m1317.09,687.85h-4.63l-7.47-13h-.11c.15,2.29.22,3.93.22,4.91v8.08h-3.25v-17.18h4.59l7.46,12.87h.08c-.12-2.23-.18-3.81-.18-4.74v-8.13h3.28v17.18Z"/>
        <path class="cls-7" d="m1345.22,687.85v-17.18h3.64v17.18h-3.64Z"/>
        <path class="cls-7" d="m1386.56,670.67h5.35c2.44,0,4.21.35,5.31,1.04s1.65,1.8,1.65,3.31c0,1.03-.24,1.87-.72,2.53-.48.66-1.12,1.05-1.92,1.19v.12c1.09.24,1.87.7,2.36,1.36.48.67.72,1.55.72,2.66,0,1.57-.57,2.79-1.7,3.67-1.13.88-2.67,1.32-4.61,1.32h-6.43v-17.18Zm3.64,6.8h2.12c.99,0,1.7-.15,2.14-.46.44-.31.66-.81.66-1.52,0-.66-.24-1.13-.72-1.42-.48-.29-1.24-.43-2.29-.43h-1.92v3.82Zm0,2.89v4.48h2.37c1,0,1.74-.19,2.22-.58s.72-.97.72-1.76c0-1.43-1.02-2.14-3.05-2.14h-2.26Z"/>
        <path class="cls-7" d="m1427.91,687.85v-17.18h3.64v14.17h6.97v3.01h-10.61Z"/>
        <path class="cls-7" d="m1479.04,683.08c0,1.55-.56,2.77-1.67,3.67-1.12.89-2.67,1.34-4.66,1.34-1.83,0-3.46-.34-4.87-1.03v-3.38c1.16.52,2.14.88,2.94,1.09.8.21,1.54.32,2.2.32.8,0,1.41-.15,1.84-.46.43-.31.64-.76.64-1.36,0-.34-.09-.64-.28-.9-.19-.26-.46-.52-.83-.76-.36-.24-1.11-.63-2.23-1.16-1.05-.49-1.84-.97-2.36-1.42-.52-.45-.94-.98-1.26-1.59s-.47-1.31-.47-2.12c0-1.52.51-2.71,1.54-3.58,1.03-.87,2.45-1.3,4.27-1.3.89,0,1.75.11,2.56.32s1.66.51,2.54.89l-1.17,2.83c-.92-.38-1.67-.64-2.27-.79-.6-.15-1.19-.22-1.77-.22-.69,0-1.22.16-1.59.48s-.55.74-.55,1.26c0,.32.07.6.22.84.15.24.39.47.71.69.33.22,1.09.62,2.31,1.2,1.61.77,2.71,1.54,3.3,2.31s.89,1.72.89,2.84Z"/>
        <path class="cls-7" d="m1522.7,687.85h-4.15l-2.33-9.02c-.09-.32-.23-.99-.44-1.99-.21-1.01-.33-1.68-.36-2.03-.05.42-.17,1.1-.35,2.04-.19.94-.33,1.6-.44,2l-2.31,9h-4.14l-4.38-17.18h3.58l2.2,9.38c.38,1.73.66,3.23.83,4.5.05-.45.15-1.14.32-2.07.17-.94.33-1.66.48-2.18l2.5-9.62h3.44l2.5,9.62c.11.43.25,1.09.41,1.97.16.89.29,1.65.38,2.28.08-.61.2-1.37.38-2.29.17-.91.33-1.65.47-2.21l2.19-9.38h3.58l-4.37,17.18Z"/>
        <path class="cls-7" d="m1229.79,725.61h-3.53l-1.98-7.68c-.07-.27-.2-.84-.38-1.7-.18-.86-.28-1.43-.31-1.73-.04.36-.14.94-.3,1.74s-.28,1.37-.37,1.71l-1.97,7.66h-3.52l-3.73-14.63h3.05l1.87,7.99c.33,1.47.56,2.75.71,3.83.04-.38.13-.97.28-1.77.14-.8.28-1.42.41-1.86l2.13-8.2h2.93l2.13,8.2c.09.37.21.93.35,1.68.14.75.25,1.4.32,1.94.07-.52.17-1.17.32-1.95.15-.78.28-1.41.4-1.89l1.86-7.99h3.05l-3.72,14.63Z"/>
        <path class="cls-7" d="m1265.13,725.61l-1.06-3.48h-5.33l-1.06,3.48h-3.34l5.16-14.69h3.79l5.18,14.69h-3.34Zm-1.8-6.08c-.98-3.15-1.53-4.94-1.66-5.35-.12-.41-.21-.74-.26-.98-.22.85-.85,2.96-1.89,6.33h3.81Z"/>
        <path class="cls-7" d="m1218.62,746.66h3.34c1.52,0,2.63.22,3.31.65.69.43,1.03,1.12,1.03,2.07,0,.64-.15,1.17-.45,1.58-.3.41-.7.66-1.2.74v.07c.68.15,1.17.44,1.47.85.3.42.45.97.45,1.66,0,.98-.35,1.74-1.06,2.29s-1.67.82-2.88.82h-4.01v-10.73Zm2.27,4.25h1.32c.62,0,1.06-.09,1.34-.29.28-.19.42-.51.42-.95,0-.41-.15-.71-.45-.88-.3-.18-.78-.27-1.43-.27h-1.2v2.38Zm0,1.81v2.8h1.48c.63,0,1.09-.12,1.39-.36.3-.24.45-.61.45-1.1,0-.89-.64-1.34-1.91-1.34h-1.41Z"/>
        <path class="cls-7" d="m1222.76,790.89h-2.27v-8.84h-2.91v-1.89h8.1v1.89h-2.91v8.84Z"/>
        <path class="cls-7" d="m1256.98,785.42c0,1.77-.5,3.12-1.51,4.06-1.01.94-2.46,1.41-4.36,1.41h-3.04v-10.73h3.37c1.75,0,3.11.46,4.08,1.39.97.92,1.45,2.22,1.45,3.87Zm-2.36.06c0-2.3-1.02-3.46-3.05-3.46h-1.21v6.99h.98c2.19,0,3.29-1.18,3.29-3.53Z"/>
        <path class="cls-7" d="m1285.7,790.89h-2.58l-2.81-4.52-.96.69v3.83h-2.27v-10.73h2.27v4.91l.9-1.26,2.91-3.65h2.52l-3.74,4.75,3.77,5.98Z"/>
        <path class="cls-7" d="m1316.95,790.89h-2.58l-2.81-4.52-.96.69v3.83h-2.27v-10.73h2.27v4.91l.9-1.26,2.91-3.65h2.52l-3.74,4.75,3.77,5.98Z"/>
        <path class="cls-7" d="m1344.44,790.89h-6.18v-10.73h6.18v1.86h-3.9v2.36h3.63v1.86h-3.63v2.77h3.9v1.88Z"/>
        <path class="cls-7" d="m1376.22,780.16v6.94c0,.79-.18,1.49-.53,2.08-.36.6-.87,1.05-1.54,1.37-.67.32-1.46.48-2.38.48-1.38,0-2.45-.35-3.21-1.06-.76-.71-1.14-1.67-1.14-2.9v-6.91h2.27v6.57c0,.83.17,1.43.5,1.82.33.39.88.58,1.65.58s1.28-.19,1.62-.58c.33-.39.5-1,.5-1.83v-6.55h2.27Z"/>
        <path class="cls-7" d="m1400.5,790.89h-2.27v-8.84h-2.91v-1.89h8.1v1.89h-2.91v8.84Z"/>
        <path class="cls-7" d="m1433.76,790.89l-.78-2.55h-3.91l-.78,2.55h-2.45l3.79-10.77h2.78l3.8,10.77h-2.45Zm-1.32-4.46c-.72-2.31-1.12-3.62-1.21-3.93-.09-.3-.16-.54-.19-.72-.16.63-.62,2.17-1.39,4.65h2.8Z"/>
        <path class="cls-7" d="m1464.5,790.89h-2.27v-4.63h-4.25v4.63h-2.27v-10.73h2.27v4.21h4.25v-4.21h2.27v10.73Z"/>
        <path class="cls-7" d="m1494.1,790.89h-2.89l-4.67-8.12h-.07c.09,1.43.14,2.46.14,3.07v5.05h-2.03v-10.73h2.87l4.66,8.04h.05c-.07-1.39-.11-2.38-.11-2.96v-5.08h2.05v10.73Z"/>
        <path class="cls-7" d="m1521.65,790.89l-.78-2.55h-3.91l-.78,2.55h-2.45l3.79-10.77h2.78l3.8,10.77h-2.45Zm-1.32-4.46c-.72-2.31-1.12-3.62-1.21-3.93-.09-.3-.16-.54-.19-.72-.16.63-.62,2.17-1.39,4.65h2.8Z"/>
        <path class="cls-7" d="m1253.09,751.08l2.24-4.42h2.45l-3.56,6.55v4.18h-2.26v-4.1l-3.56-6.63h2.47l2.22,4.42Z"/>
        <path class="cls-7" d="m1286,753.27v4.12h-2.27v-10.73h3.13c1.46,0,2.54.27,3.24.8.7.53,1.05,1.34,1.05,2.42,0,.63-.17,1.19-.52,1.68-.35.49-.84.88-1.47,1.16,1.61,2.41,2.67,3.97,3.16,4.67h-2.52l-2.56-4.12h-1.21Zm0-1.85h.73c.72,0,1.25-.12,1.59-.36.34-.24.51-.62.51-1.13s-.18-.87-.53-1.09c-.35-.22-.89-.32-1.62-.32h-.69v2.9Z"/>
        <path class="cls-7" d="m1316.52,757.39v-10.73h2.27v8.85h4.35v1.88h-6.63Z"/>
        <path class="cls-7" d="m1358.75,751.92c0,1.77-.5,3.12-1.51,4.06-1.01.94-2.46,1.41-4.36,1.41h-3.04v-10.73h3.37c1.75,0,3.11.46,4.08,1.39.97.92,1.45,2.22,1.45,3.87Zm-2.36.06c0-2.3-1.02-3.46-3.05-3.46h-1.21v6.99h.98c2.19,0,3.29-1.18,3.29-3.53Z"/>
        <path class="cls-7" d="m1389.33,754.41c0,.97-.35,1.73-1.05,2.29-.7.56-1.67.84-2.91.84-1.15,0-2.16-.21-3.04-.65v-2.11c.72.32,1.34.55,1.84.68.5.13.96.2,1.38.2.5,0,.88-.09,1.15-.29.27-.19.4-.47.4-.85,0-.21-.06-.4-.18-.56s-.29-.32-.52-.47-.69-.39-1.39-.73c-.66-.31-1.15-.6-1.47-.89-.33-.28-.59-.61-.79-.99-.2-.38-.29-.82-.29-1.32,0-.95.32-1.7.96-2.24.64-.54,1.53-.82,2.67-.82.56,0,1.09.07,1.6.2.51.13,1.04.32,1.59.56l-.73,1.77c-.57-.24-1.05-.4-1.42-.49s-.74-.14-1.1-.14c-.43,0-.76.1-.99.3-.23.2-.34.46-.34.79,0,.2.05.38.14.53s.24.29.44.43c.2.14.68.39,1.44.75,1,.48,1.69.96,2.06,1.44.37.48.56,1.07.56,1.77Z"/>
        <path class="cls-7" d="m1426.73,757.39h-2.89l-4.67-8.12h-.07c.09,1.43.14,2.46.14,3.07v5.05h-2.03v-10.73h2.87l4.66,8.04h.05c-.07-1.39-.11-2.38-.11-2.96v-5.08h2.05v10.73Z"/>
        <path class="cls-7" d="m1449.8,751.36h4.26v5.56c-.69.22-1.34.38-1.95.47-.61.09-1.23.14-1.87.14-1.62,0-2.86-.48-3.71-1.43-.85-.95-1.28-2.32-1.28-4.1s.5-3.08,1.49-4.05c.99-.97,2.36-1.45,4.12-1.45,1.1,0,2.16.22,3.18.66l-.76,1.82c-.78-.39-1.6-.59-2.44-.59-.98,0-1.77.33-2.36.99-.59.66-.89,1.55-.89,2.66s.24,2.05.71,2.67c.48.61,1.17.92,2.08.92.47,0,.96-.05,1.45-.15v-2.24h-2.03v-1.89Z"/>
        <path class="cls-7" d="m1488.26,752.01c0,1.78-.44,3.14-1.32,4.09s-2.14,1.43-3.79,1.43-2.91-.48-3.79-1.43-1.32-2.32-1.32-4.11.44-3.15,1.33-4.09c.88-.94,2.15-1.41,3.8-1.41s2.91.47,3.78,1.42c.87.95,1.31,2.31,1.31,4.1Zm-7.83,0c0,1.2.23,2.1.68,2.71.46.61,1.14.91,2.04.91,1.81,0,2.72-1.21,2.72-3.62s-.9-3.63-2.71-3.63c-.91,0-1.59.3-2.05.91s-.69,1.51-.69,2.71Z"/>
        <path class="cls-7" d="m1520.54,757.39h-2.27v-4.63h-4.25v4.63h-2.27v-10.73h2.27v4.21h4.25v-4.21h2.27v10.73Z"/>
        <path class="cls-7" d="m1304.91,718.15c0,2.41-.69,4.25-2.06,5.53-1.37,1.28-3.35,1.92-5.94,1.92h-4.14v-14.63h4.59c2.39,0,4.24.63,5.56,1.89,1.32,1.26,1.98,3.02,1.98,5.28Zm-3.22.08c0-3.14-1.39-4.71-4.16-4.71h-1.65v9.53h1.33c2.99,0,4.48-1.6,4.48-4.81Z"/>
        <path class="cls-7" d="m1341.9,718.15c0,2.41-.69,4.25-2.06,5.53-1.37,1.28-3.35,1.92-5.94,1.92h-4.14v-14.63h4.59c2.39,0,4.24.63,5.56,1.89,1.32,1.26,1.98,3.02,1.98,5.28Zm-3.22.08c0-3.14-1.39-4.71-4.16-4.71h-1.65v9.53h1.33c2.99,0,4.48-1.6,4.48-4.81Z"/>
        <path class="cls-7" d="m1372.26,721.55c0,1.32-.48,2.36-1.43,3.12-.95.76-2.27,1.14-3.97,1.14-1.56,0-2.94-.29-4.14-.88v-2.88c.99.44,1.82.75,2.51.93.68.18,1.31.27,1.88.27.68,0,1.2-.13,1.57-.39.36-.26.55-.65.55-1.16,0-.29-.08-.54-.24-.77s-.4-.44-.71-.65c-.31-.21-.94-.54-1.9-.99-.89-.42-1.56-.82-2.01-1.21-.45-.39-.8-.84-1.07-1.35s-.4-1.11-.4-1.8c0-1.29.44-2.31,1.32-3.05.88-.74,2.09-1.11,3.64-1.11.76,0,1.49.09,2.18.27.69.18,1.41.43,2.17.76l-1,2.41c-.78-.32-1.43-.54-1.94-.67-.51-.13-1.01-.19-1.51-.19-.59,0-1.04.14-1.35.41s-.47.63-.47,1.07c0,.27.06.51.19.72.13.2.33.4.61.59.28.19.93.53,1.97,1.03,1.37.65,2.3,1.31,2.81,1.97s.76,1.46.76,2.42Z"/>
        <path class="cls-7" d="m1413.53,725.61h-3.52l-3.83-6.16-1.31.94v5.22h-3.1v-14.63h3.1v6.69l1.22-1.72,3.96-4.97h3.44l-5.1,6.47,5.14,8.15Z"/>
        <path class="cls-7" d="m1443.05,725.61h-3.1v-12.05h-3.97v-2.58h11.05v2.58h-3.97v12.05Z"/>
        <path class="cls-7" d="m1483.35,725.61h-3.94l-6.36-11.07h-.09c.13,1.95.19,3.35.19,4.18v6.88h-2.77v-14.63h3.91l6.35,10.96h.07c-.1-1.9-.15-3.25-.15-4.03v-6.92h2.79v14.63Z"/>
        <path class="cls-7" d="m1512.24,725.61v-14.63h3.1v14.63h-3.1Z"/>
        <path class="cls-7" d="m1408.2,585.38c0,3.23-1.01,5.69-3.02,7.4-2.02,1.71-4.88,2.56-8.6,2.56h-2.73v10.66h-6.36v-29.98h9.58c3.64,0,6.4.78,8.29,2.35,1.89,1.57,2.84,3.9,2.84,7Zm-14.35,4.76h2.09c1.96,0,3.42-.39,4.39-1.16s1.46-1.9,1.46-3.37-.41-2.59-1.22-3.3-2.09-1.07-3.82-1.07h-2.89v8.9Z"/>
        <path class="cls-7" d="m1460.55,596.46c0,2.59-.97,4.63-2.92,6.12-1.95,1.49-4.66,2.23-8.13,2.23-3.2,0-6.03-.57-8.49-1.72v-5.65c2.02.86,3.74,1.47,5.14,1.82,1.4.35,2.68.53,3.84.53,1.39,0,2.46-.25,3.21-.76.74-.51,1.12-1.27,1.12-2.27,0-.56-.16-1.06-.49-1.5-.33-.44-.81-.86-1.45-1.26s-1.93-1.05-3.89-1.94c-1.83-.82-3.21-1.61-4.12-2.37s-1.65-1.64-2.19-2.65c-.55-1.01-.82-2.18-.82-3.53,0-2.54.9-4.53,2.7-5.98,1.8-1.45,4.28-2.18,7.45-2.18,1.56,0,3.05.18,4.46.53,1.42.35,2.89.85,4.44,1.49l-2.05,4.72c-1.6-.63-2.92-1.07-3.97-1.31s-2.08-.37-3.09-.37c-1.2,0-2.12.27-2.77.8-.64.54-.96,1.24-.96,2.1,0,.54.13,1,.39,1.4.26.4.67.78,1.24,1.16.57.37,1.91,1.04,4.03,2.01,2.8,1.28,4.72,2.57,5.76,3.85s1.56,2.87,1.56,4.73Z"/>
        <path class="cls-7" d="m1516.55,584.7c0,3.08-1.01,5.44-3.02,7.08-2.02,1.63-4.88,2.45-8.6,2.45h-2.73v10.19h-6.36v-28.66h9.58c3.64,0,6.4.75,8.3,2.24,1.89,1.5,2.84,3.73,2.84,6.69Zm-14.35,4.55h2.09c1.96,0,3.42-.37,4.39-1.11s1.46-1.81,1.46-3.22-.41-2.48-1.22-3.16c-.81-.68-2.09-1.02-3.83-1.02h-2.89v8.51Z"/>
        <path class="cls-7" d="m1418.07,485.59c0,4.06-1.46,7.26-4.38,9.6-2.92,2.34-6.99,3.51-12.2,3.51-4.8,0-9.05-.9-12.74-2.71v-8.86c3.04,1.35,5.6,2.31,7.71,2.86,2.1.55,4.03.83,5.77.83,2.09,0,3.7-.4,4.82-1.2,1.12-.8,1.68-1.99,1.68-3.57,0-.88-.25-1.67-.74-2.35-.49-.69-1.22-1.35-2.17-1.98-.95-.64-2.9-1.65-5.83-3.05-2.75-1.29-4.81-2.53-6.18-3.72-1.38-1.19-2.47-2.57-3.29-4.15-.82-1.58-1.23-3.43-1.23-5.54,0-3.98,1.35-7.11,4.05-9.38,2.7-2.28,6.42-3.42,11.18-3.42,2.34,0,4.57.28,6.69.83s4.34,1.33,6.66,2.34l-3.08,7.42c-2.4-.98-4.38-1.67-5.95-2.06s-3.11-.58-4.63-.58c-1.8,0-3.19.42-4.15,1.26-.96.84-1.45,1.94-1.45,3.29,0,.84.19,1.58.58,2.2.39.63,1.01,1.23,1.86,1.82.85.58,2.87,1.64,6.05,3.15,4.21,2.01,7.09,4.03,8.65,6.05,1.56,2.02,2.34,4.5,2.34,7.43Z"/>
        <path class="cls-7" d="m1511.29,475.16c0,7.41-2.11,13.08-6.32,17.02-4.21,3.94-10.3,5.91-18.26,5.91h-12.74v-44.98h14.12c7.34,0,13.05,1.94,17.11,5.82s6.09,9.29,6.09,16.25Zm-9.91.25c0-9.66-4.27-14.49-12.8-14.49h-5.08v29.29h4.09c9.19,0,13.79-4.93,13.79-14.8Z"/>
        <path class="cls-7" d="m1302.45,395.61c0,11.67-2.89,20.63-8.68,26.9-5.78,6.27-14.08,9.4-24.87,9.4s-19.09-3.13-24.87-9.4c-5.78-6.27-8.68-15.26-8.68-27s2.9-20.69,8.7-26.87c5.8-6.19,14.12-9.28,24.95-9.28s19.11,3.12,24.85,9.35c5.74,6.24,8.61,15.2,8.61,26.9Zm-51.43,0c0,7.87,1.49,13.8,4.48,17.79,2.99,3.99,7.46,5.98,13.4,5.98,11.92,0,17.88-7.92,17.88-23.76s-5.93-23.81-17.79-23.81c-5.95,0-10.43,2-13.45,6-3.02,4-4.53,9.94-4.53,17.81Z"/>
        <path class="cls-7" d="m1462.89,403.9v27.04h-14.94v-70.48h20.54c9.58,0,16.66,1.74,21.26,5.23,4.6,3.49,6.89,8.78,6.89,15.88,0,4.15-1.14,7.83-3.42,11.06-2.28,3.23-5.51,5.76-9.69,7.59,10.61,15.84,17.51,26.08,20.73,30.71h-16.58l-16.82-27.04h-7.95Zm0-12.15h4.82c4.72,0,8.21-.79,10.46-2.36,2.25-1.57,3.38-4.05,3.38-7.42s-1.15-5.72-3.45-7.13-5.86-2.12-10.68-2.12h-4.53v19.04Z"/>
        <path class="cls-7" d="m1344.81,270.03c0,10.18-3.18,17.97-9.55,23.37-6.37,5.4-15.42,8.09-27.15,8.09h-8.61v33.66h-20.07v-94.63h30.23c11.48,0,20.21,2.47,26.18,7.41,5.98,4.94,8.96,12.31,8.96,22.1Zm-45.31,15.02h6.6c6.17,0,10.79-1.22,13.85-3.66,3.06-2.44,4.6-5.99,4.6-10.65s-1.28-8.18-3.85-10.42c-2.57-2.24-6.59-3.37-12.07-3.37h-9.13v28.09Z"/>
      </g>
      <rect class="cls-7" x="1076.45" y="48.17" width="587.88" height="17.11"/>
      <rect class="cls-7" x="1076.45" y="813.11" width="587.88" height="17.11"/>
    </g>
    <g>
      <g>
        <path class="cls-3" d="m902.67,733.63s60.24-64.51,62.38-77.35c2.14-12.83-1.43-60.24,9.98-73.78,11.41-13.54,64.51-85.19,64.51-85.19,0,0,16.04,2.85,18.53,16.75,2.5,13.9-30.65,58.1-25.66,70.22,0,0,33.04-6.83,43.84-11.76,16.4-7.49,125.23-32.67,134.5-19.13,9.27,13.54-73.19,41.94-73.19,41.94,0,0,3.21,26.02-13.9,32.44,0,0,4.63,26.38-15.33,30.65,0,0,16.75,44.2-86.61,39.21l-50.97,124.04s-55.25-35.64-68.08-88.04Z"/>
        <path class="cls-2" d="m1066.3,684.47c-1.15,0-2.34-.17-3.57-.56-1.92-.61-17-14.73-17.54-27.17-.2-4.55,1.52-10.79,10.83-14.68,25.38-10.58,52.22,14.2,53.35,15.26l-2.05,2.19c-.26-.25-26.56-24.52-50.14-14.68-5.86,2.44-8.79,5.95-8.99,10.72-.44,10.97,13.82,24.55,15.53,25.52,6.74,2.08,12.76-5,12.82-5.08l2.31,1.92c-.26.31-5.53,6.56-12.53,6.56Z"/>
        <path class="cls-2" d="m1056.93,643.11c-.13-.54-3.04-13.36,3.17-22.68,3.15-4.73,8.06-7.67,14.6-8.75,22.98-3.8,48.74,14.1,49.82,14.87l-1.73,2.45c-.26-.18-25.86-17.96-47.6-14.36-5.68.94-9.91,3.44-12.58,7.44-5.5,8.23-2.79,20.23-2.76,20.35l-2.92.68Z"/>
        <path class="cls-2" d="m1073.52,613.59c-.17-.57-4.2-14.03,1.79-23.65,2.95-4.74,7.79-7.69,14.38-8.75,23.49-3.79,47.7,12.21,48.72,12.89l-1.67,2.49c-.24-.16-24.27-16.03-46.57-12.42-5.7.92-9.84,3.4-12.31,7.37-5.27,8.47-1.5,21.06-1.46,21.18l-2.87.88Z"/>
      </g>
      <path class="cls-9" d="m822.95,821.67l79.72-95.29,89.23,115.49s-26.38,213.91-193.54,212.46l-34.1-33.31-66.7-160.6v292.59H230.91S10.99,1057.7.66,980.67s104.08-378.57,172.51-427.76,236.34-102.8,236.34-102.8l131.04,12.98s171.56,76.4,191.88,102.89c20.32,26.5,76.28,205.43,76.28,205.43l4.63,42.42,9.62,7.84Z"/>
      <path class="cls-5" d="m381.72,455l-32.35,12.25s-34.22,112.63-27.56,159.68l113.52,2.38-37.95,38.02,153.78,174.53,14.1,311.29h9.5s-9.39-367.25-20.08-398.62l82.69-92.57-42.77-34.26,81.98-22.87s-54.3-111.5-121.61-141.29l-173.25-8.54Z"/>
      <path class="cls-8" d="m399.5,424.83l-21.06,35.73s-11.61,60.18,51.83,139.89c63.45,79.71,82.69,126.76,82.69,126.76,0,0,99.44-140.49,47.94-254.88,0,0-12.05-20.29-20.37-21.24s-141.03-26.26-141.03-26.26Z"/>
      <g>
        <path class="cls-3" d="m344.14,1061.95l35.41,8.99s71.29.48,80.79,4.28c9.5,3.8,144.48,69.39,144.48,69.39,0,0-2.85,6.65-8.08,7.6-5.23.95-212.44,4.75-223.37-2.38-10.93-7.13-77.94-17.69-77.94-17.69l48.71-70.19Z"/>
        <path class="cls-2" d="m571.18,1154.25c-8.33-5.69-105.22-46.36-106.2-46.77l1.16-2.77c4,1.68,98.16,41.2,106.73,47.06l-1.69,2.48Z"/>
        <path class="cls-2" d="m514.58,1155.51c-19.78-5.69-78.86-26.87-79.46-27.08l1.01-2.82c.59.21,59.59,21.36,79.27,27.02l-.83,2.88Z"/>
      </g>
      <g>
        <rect class="cls-5" x="305.52" y="763.92" width="160.04" height="14.97"/>
        <path class="cls-5" d="m305.52,788.28h160.04v117.33c0,12.1-9.82,21.92-21.92,21.92h-116.2c-12.1,0-21.92-9.82-21.92-21.92v-117.33h0Z"/>
      </g>
      <path class="cls-5" d="m249.12,701.08l-83.08,226.45,190.69,114.91-12.59,19.51,12.59,3.2,11.76-26.38s-171.8-89.26-164.67-116.34,45.3-221.34,45.3-221.34Z"/>
      <path class="cls-5" d="m697.13,857.9l9.98-195.94s31.37,322.52,91.25,392.36c0,0-76.63-48.85-101.23-196.42Z"/>
      <polygon class="cls-5" points="822.95 821.67 808.69 771.41 803.7 841.86 822.95 821.67"/>
      <polygon class="cls-5" points="295.43 1132.14 280.46 1153.01 305.17 1153.01 312.59 1135.03 295.43 1132.14"/>
      <path class="cls-4" d="m452.59,566.65l-.43-.22c-.43-.22-43.63-22.13-61.55-68.94l.93-.36c16.82,43.93,56.09,65.77,60.63,68.18l26.96-49.92.88.48-27.43,50.78Z"/>
      <path class="cls-4" d="m552.26,553.16l-37.38-42.06.75-.66,36.46,41.03c2.37-4.29,16.31-30.91,14.91-61.87l1-.04c1.53,33.96-15.22,62.74-15.39,63.02l-.35.59Z"/>
      <path class="cls-4" d="m512.47,727.25c-2.7-37.22-14.72-150.04-14.85-151.17l.99-.11c.12,1.14,12.14,113.96,14.85,151.21l-1,.07Z"/>
      <ellipse class="cls-4" cx="515.52" cy="541.75" rx="4.09" ry="7.84"/>
      <path class="cls-4" d="m530.79,913.65c-4.21,0-7.63-5.34-7.63-11.91s3.42-11.91,7.63-11.91,7.63,5.34,7.63,11.91-3.42,11.91-7.63,11.91Zm0-22.81c-3.66,0-6.63,4.89-6.63,10.91s2.97,10.91,6.63,10.91,6.63-4.89,6.63-10.91-2.97-10.91-6.63-10.91Z"/>
      <path class="cls-4" d="m532.81,1032.7c-4.21,0-7.63-5.34-7.63-11.91s3.42-11.91,7.63-11.91,7.63,5.34,7.63,11.91-3.42,11.91-7.63,11.91Zm0-22.81c-3.65,0-6.63,4.89-6.63,10.91s2.97,10.91,6.63,10.91,6.63-4.89,6.63-10.91-2.97-10.91-6.63-10.91Z"/>
    </g>
    <g>
      <rect class="cls-11" x="986.67" y="1001.07" width="10.46" height="13.79"/>
      <rect class="cls-12" x="983.35" y="1014.85" width="17.11" height="62.73"/>
      <rect class="cls-12" x="983.35" y="990.73" width="17.11" height="13.79"/>
      <circle class="cls-4" cx="991.9" cy="953.72" r="39.56"/>
      <circle class="cls-11" cx="991.9" cy="953.72" r="34.34"/>
    </g>
    <rect class="cls-4" x="190.16" y="1153.01" width="1063.6" height="66.83"/>
    <path class="cls-10" d="m308.29,264.9l-27.66-27.06c10.79-18.2,16.99-39.44,16.99-62.14,0-67.4-54.64-122.04-122.04-122.04s-122.04,54.64-122.04,122.04c0,67.4,54.64,122.04,122.04,122.04,28.68,0,55.05-9.9,75.89-26.46l56.83-6.38Z"/>
    <rect class="cls-4" x="179.73" y="1219.84" width="1377.27" height="17.82" transform="translate(1736.73 2457.5) rotate(-180)"/>
    <polygon class="cls-10" points="800.57 91.99 786.74 91.99 786.74 78.17 771.21 78.17 771.21 91.99 757.39 91.99 757.39 107.52 771.21 107.52 771.21 121.35 786.74 121.35 786.74 107.52 800.57 107.52 800.57 91.99"/>
    <polygon class="cls-10" points="75.12 507.06 61.29 507.06 61.29 493.24 45.76 493.24 45.76 507.06 31.94 507.06 31.94 522.59 45.76 522.59 45.76 536.42 61.29 536.42 61.29 522.59 75.12 522.59 75.12 507.06"/>
    <polygon class="cls-10" points="966.76 27.66 939.11 27.66 939.11 0 908.04 0 908.04 27.66 880.38 27.66 880.38 58.72 908.04 58.72 908.04 86.38 939.11 86.38 939.11 58.72 966.76 58.72 966.76 27.66"/>
    <g>
      <path class="cls-3" d="m640.93,171.52l-5.94,31.61-1.73,69-.86,34.65-.14,5.42-7.48,55.27-84.24,73.01v38.05s-42.66,40.87-43.61,87.45c0,0-8.07-44.67-19.96-52.75-11.88-8.08-64.63-36.12-77.46-88.4l2.49-77.7-38.61-48.72-10.93-38.49,5.7-32.32,25.67-20.91,51.8-88.39,96.24-10.46,100.51,25.19,8.55,38.49Z"/>
      <path class="cls-2" d="m633.26,272.13l-.86,34.65c-8.41-1.25-14.87-8.51-14.87-17.28s6.9-16.5,15.73-17.37Z"/>
      <path class="cls-4" d="m432.18,227.61s-10.69,111.98,49.78,101.05c0,0,6.77-31.37,28.87-29.94s39.49,11.17,51.71,12.59c12.22,1.43,55.41-17.58,54.13,20.91,0,0,7.75-3.74,15.59-20.02,0,0,22.33,140.08-88.28,128.67-110.61-11.41-136.99-113.35-136.99-122.61v-79.13s-19.96-30.65-40.99,4.28,37.43,73.78,37.43,73.78l-1.43,29.94s-57.74-10.69-52.75-96.59c.9-15.45,2.55-29.99-.96-45.07-2.57-11.02-6.81-21.62-9-32.72s-2.13-23.21,3.49-33.03c8-13.99,24.97-19.98,36.26-31.5,10.33-10.54,15.34-25.09,23.66-37.28,8.62-12.64,21.72-23.06,36.9-24.92s32.02,6.77,36.36,21.45c9.9-8.7,20.64-17.95,33.22-21.9s27.15-3.3,37.92,4.3c5.62,3.97,9.94,9.57,15.6,13.49,9.93,6.87,22.75,7.76,34.82,7.35,12.07-.41,24.36-1.87,36.06,1.13,18.32,4.7,33.09,21.05,35.89,39.76s-6.51,38.67-22.66,48.54c0,0,15.51,33.01-11.82,42.99,0,0,1.9-45.27-25.19-61.31.59,7.63-6.17,15.15-13.19,18.22-7.01,3.07-15.03,2.82-22.59,1.62-17.64-2.81-34.1-10.42-51.22-15.48s-36.18-7.43-52.4.05c-3.26,1.5-6.49,3.53-8.19,6.69-3.26,6.06.19,13.83-2.09,20.32-2.38,6.76-9.92,9.86-15.7,14.11-11.66,8.56-16.07,26.31-12.25,40.26Z"/>
      <circle class="cls-4" cx="520.81" cy="243.41" r="11.05"/>
      <circle class="cls-4" cx="611.91" cy="243.41" r="11.05"/>
      <path class="cls-4" d="m481.96,198.38s24.71-12.54,62.02-10.16l-15.68-22.39s-36.59,11.88-46.34,32.55Z"/>
      <path class="cls-4" d="m634.99,198.38s-14.6-12.54-36.64-10.16l9.26-22.39s21.62,11.88,27.38,32.55Z"/>
      <path class="cls-4" d="m620.3,295.01c-23.84,0-43.24-22.17-43.24-49.43s19.4-49.43,43.24-49.43,43.24,22.17,43.24,49.43-19.4,49.43-43.24,49.43Zm0-87.86c-17.78,0-32.24,17.24-32.24,38.43s14.46,38.43,32.24,38.43,32.24-17.24,32.24-38.43-14.46-38.43-32.24-38.43Z"/>
      <polygon class="cls-2" points="577.96 227.61 609.8 306.97 563.7 312.2 577.96 227.61"/>
      <g>
        <path class="cls-4" d="m518.61,295.01c-27.26,0-49.43-22.17-49.43-49.43s22.17-49.43,49.43-49.43,49.43,22.17,49.43,49.43-22.17,49.43-49.43,49.43Zm0-87.86c-21.19,0-38.43,17.24-38.43,38.43s17.24,38.43,38.43,38.43,38.43-17.24,38.43-38.43-17.24-38.43-38.43-38.43Z"/>
        <rect class="cls-4" x="412.1" y="226.86" width="64.6" height="11"/>
        <path class="cls-4" d="m585.6,240.65c-12.96-2.77-22.7-.11-22.8-.08l-2.98-10.59c.5-.14,12.49-3.42,28.08-.08l-2.3,10.76Z"/>
      </g>
      <g>
        <path class="cls-2" d="m596.97,333.94s-3.09,32.08-42,33.5c-27.12,1-36.84-21.38-40.24-35.04-1.48-5.93-1.76-10.22-1.76-10.22l76.37,10.69,7.63,1.07Z"/>
        <path class="cls-1" d="m589.34,332.87c-7.21,18.33-57.99,4.58-74.61-.47-1.48-5.93-1.76-10.22-1.76-10.22l76.37,10.69Z"/>
      </g>
      <path class="cls-2" d="m404.1,274.71c-3.58-9.21-10.03-17.04-18.7-21.91-2.5-1.4-6.09-.68-7.49,1.96-1.37,2.59-.7,5.99,1.96,7.49.88.5,1.75,1.02,2.59,1.59.43.29.86.6,1.28.9.09.07.19.15.28.23,1.57,1.28,3.03,2.7,4.36,4.22.32.36.63.73.93,1.11,0,.01.03.03.04.06.06.08.13.17.16.21.6.82,1.16,1.66,1.69,2.52.53.86,1.02,1.75,1.48,2.65.21.41.4.83.6,1.25-.02-.06-.04-.12-.07-.19.09.27.22.54.32.81.53,1.37,1.2,2.5,2.52,3.27,1.17.69,2.9.98,4.22.55,2.59-.84,4.94-3.88,3.82-6.74Z"/>
      <circle class="cls-2" cx="461.87" cy="289.51" r="17.47"/>
    </g>
    <g>
      <path class="cls-11" d="m1096.22,926.81h0c5.9,0,10.69,4.79,10.69,10.69v117.15h-21.39v-117.15c0-5.9,4.79-10.69,10.69-10.69Z"/>
      <rect class="cls-12" x="1085.52" y="959.96" width="21.39" height="3.92"/>
    </g>
    <g>
      <path class="cls-12" d="m1059.62,953.07h0c5.9,0,10.69,4.79,10.69,10.69v117.15h-21.39v-117.15c0-5.9,4.79-10.69,10.69-10.69Z"/>
      <rect class="cls-11" x="1048.93" y="986.22" width="21.39" height="3.92"/>
    </g>
    <g>
      <path class="cls-11" d="m1132.1,953.07h0c5.9,0,10.69,4.79,10.69,10.69v117.15h-21.39v-117.15c0-5.9,4.79-10.69,10.69-10.69Z" transform="translate(518.6 -375.68) rotate(24.29)"/>
      <rect class="cls-12" x="1133.26" y="988.77" width="21.39" height="3.92" transform="translate(508.85 -382.88) rotate(24.29)"/>
    </g>
    <rect class="cls-13" x="969.09" y="1037.9" width="170.61" height="115.11"/>
    <g>
      <polygon class="cls-11" points="164.12 162.67 140.46 162.67 140.46 139.01 114.4 139.01 114.4 162.67 90.74 162.67 90.74 188.73 114.4 188.73 114.4 212.39 140.46 212.39 140.46 188.73 164.12 188.73 164.12 162.67"/>
      <rect class="cls-11" x="215.2" y="139.01" width="26.06" height="73.37" transform="translate(52.53 403.93) rotate(-90)"/>
    </g>
  </g>
</svg>